<?xml version="1.0" standalone="no"?><!DOCTYPE svg PUBLIC "-//W3C//DTD SVG 1.1//EN" "http://www.w3.org/Graphics/SVG/1.1/DTD/svg11.dtd"><svg t="1775143007446" class="icon" viewBox="0 0 1024 1024" version="1.1" xmlns="http://www.w3.org/2000/svg" p-id="25613" xmlns:xlink="http://www.w3.org/1999/xlink" width="512" height="512"><path d="M69.907084 762.68648l12.509326 19.113842 2.082044 3.191329a606.642613 606.642613 0 0 0 38.586068 52.051086l1.041021 1.058088a133.950484 133.950484 0 0 1 11.468305 13.806337l1.041022 1.058088a502.216188 502.216188 0 0 0 69.970313 63.724182l3.123065 2.116176c6.263196 4.249417 12.509327 9.556921 18.772523 13.806337l1.041022 1.058088a472.231349 472.231349 0 0 0 67.80294 37.169595c15.649458 7.440745 32.339937 11.690162 49.030416 19.113842a242.046085 242.046085 0 0 0 76.14818 21.247083c3.123065 1.058088 5.222175 2.116175 8.34524 3.191328h1.041022a201.565699 201.565699 0 0 0 30.240828 5.307505 22.578225 22.578225 0 0 1 8.345239 1.058087 27.851598 27.851598 0 0 0 9.386262 0 419.821878 419.821878 0 0 0 52.153482 2.116176c3.123065 0 5.222175 1.058088 8.34524 1.058087a469.910382 469.910382 0 0 0 57.375656-7.440745h2.082044a6.177867 6.177867 0 0 0 4.164087-1.058088h2.082043a500.031749 500.031749 0 0 0 199.227667-81.797002h1.041021a177.07609 177.07609 0 0 0 14.608436-10.615009l2.082044-2.116175c2.082043-1.058088 4.164087-3.191329 6.263196-4.249417l1.041022-1.058087c1.041022-1.058088 3.123065-2.116175 4.164087-3.191329 4.164087-3.191329 8.34524-7.440745 12.509327-10.615009a519.6917 519.6917 0 0 0 58.416678-59.474766l2.082043-2.116175a544.625024 544.625024 0 0 0 67.80294-107.276436c4.164087-8.532965 7.304218-17.06593 11.468305-26.554587 6.263196-15.939579 12.509327-31.862091 16.69048-45.668429a388.557094 388.557094 0 0 0 15.649458-78.605673 452.929782 452.929782 0 0 0-12.509327-188.015351 585.02008 585.02008 0 0 0-23.994698-72.223015c0-1.058088 0-1.058088-1.041021-2.116176a602.359065 602.359065 0 0 0-21.912655-45.668428l-2.082043-4.249417c-3.123065-5.307504-6.263196-11.690162-9.386262-17.06593l-3.123065-5.307504a138.660681 138.660681 0 0 0-10.427283-15.939579c0-1.058088-1.041022-1.058088-1.041022-2.116175-1.041022-1.058088-1.041022-2.116175-2.082043-3.191329l-1.041022-1.058088c-3.123065-4.249417-5.222175-8.532965-8.34524-12.748249l-4.164087-5.307505-9.386261-12.748249-3.123065-3.191329-1.041022-1.058088c-3.123065-4.249417-7.304218-8.532965-11.468305-13.806337l-2.082043-2.116176a507.199439 507.199439 0 0 0-165.846708-125.332189 396.100235 396.100235 0 0 0-41.726199-14.864425 230.748439 230.748439 0 0 1-32.339937-11.690162h-1.041022a80.807178 80.807178 0 0 0-14.608436-5.307505c-9.386261-1.058088-19.813545-4.249417-30.240828-6.365592a191.257877 191.257877 0 0 0-35.463002-7.440745h-4.300615a168.201806 168.201806 0 0 0-23.994697-2.116175 42.050451 42.050451 0 0 1-11.468305-1.058088h-44.746869a67.649346 67.649346 0 0 0-14.608436 1.058088h-9.386261a502.728166 502.728166 0 0 0-139.769967 31.862091l-1.041022-3.191329h-1.041021c-1.041022 0-1.041022 0-2.082044 1.058088-11.468305 4.249417-19.813545 8.532965-29.199806 12.748249a3.617977 3.617977 0 0 0-2.082043 1.058088 121.424092 121.424092 0 0 1-11.468305 5.307504c-4.164087 2.116175-7.304218 4.249417-11.468305 6.365592s-7.304218 4.249417-11.468305 6.365592-8.34524 5.307504-13.567415 7.440745l-1.041021 2.116176a21.793193 21.793193 0 0 0-6.263197 4.249416c-7.304218 4.249417-13.567414 9.556921-20.854566 13.806338a18.362941 18.362941 0 0 0-5.222175 4.249416l-2.082043 2.116176c-4.164087 3.191329-9.386261 7.440745-13.567414 10.615008a52.528933 52.528933 0 0 0-8.34524 7.440746c-4.164087 3.191329-8.34524 7.440745-12.509327 10.615008l-1.041022 1.058088a27.783334 27.783334 0 0 1-6.263196 5.307504 84.152101 84.152101 0 0 0-13.567414 13.806337l-1.041022 1.058088-3.123065 3.191329-2.082044 2.116175-6.263196 6.365592a231.687066 231.687066 0 0 0-41.726199 52.051086 343.144654 343.144654 0 0 0-45.890286 78.605674 157.501468 157.501468 0 0 0-6.263196 14.864425l-3.123065 7.440745c-1.041022 4.249417-3.123065 7.440745-4.164087 11.690163l-6.263196 10.615008c-1.041022 2.116175-1.041022 4.249417-2.082044 6.365592l-3.123065 8.532965v1.058088c-1.041022 4.249417-2.082043 7.440745-3.123065 11.690162l-1.041022 3.191328c-1.041022 5.307504-3.123065 9.556921-4.164087 14.864425-1.041022 3.191329-1.041022 6.365592-2.082043 9.556921-1.041022 4.249417-2.082043 9.556921-3.123065 13.806338-3.123065 15.939579-5.222175 32.920179-7.304218 49.917845 0 4.249417-1.041022 7.440745-1.041022 11.690162v61.608007c0 6.365592 1.041022 11.690162 1.041022 18.055754v3.191329c1.041022 5.307504 1.041022 11.690162 2.082043 17.06593v4.249417c1.041022 5.307504 2.082043 11.690162 3.123065 17.06593l1.041022 4.249416a265.392277 265.392277 0 0 0 9.386261 41.419012 461.752868 461.752868 0 0 0 27.117763 75.414345c0 1.058088 0 1.058088 1.041022 2.116175 3.123065 7.440745 7.304218 15.939579 11.468305 24.438412l1.041022 2.116175a211.822323 211.822323 0 0 0 11.468305 21.247083l1.041021 6.365592z" fill="#FFFFFF" p-id="25614"></path><path d="M937.743755 714.88481c-3.123065 6.365592-5.222175 12.74825-8.345239 18.055754a429.395864 429.395864 0 0 1-53.194504 80.721849 465.541504 465.541504 0 0 1-55.276547 56.317569l-12.509327 9.556921-12.509327 9.55692c-4.164087 3.191329-9.386261 6.365592-13.567414 9.556921a485.884093 485.884093 0 0 1-187.72523 75.414345 3.788636 3.788636 0 0 0-3.123065 1.058088 445.762091 445.762091 0 0 1-54.235526 6.365591h-1.041021a345.55095 345.55095 0 0 1-57.375657-2.116175c-1.041022 0-3.123065 1.058088-4.164087 0a154.463732 154.463732 0 0 1-38.586068-6.365592h-1.041021a248.701798 248.701798 0 0 1-78.230223-19.113841l-43.808243-19.113842a453.953738 453.953738 0 0 1-81.353288-49.917845 510.732087 510.732087 0 0 1-100.142877-101.968932 446.495926 446.495926 0 0 1-51.11246-89.220682 454.858232 454.858232 0 0 1-25.03572-72.223016 515.391086 515.391086 0 0 1-15.649457-149.770601 473.494227 473.494227 0 0 1 18.772523-106.218348c1.041022-2.116175 1.041022-4.249417 2.082043-6.365592 1.041022-5.307504 3.123065-9.556921 4.164087-13.806338 3.123065-9.556921 7.304218-19.113842 11.468305-28.670762 2.082043-4.249417 8.34524-7.440745 10.427283-12.74825a298.824434 298.824434 0 0 1 46.931308-71.164928 192.845009 192.845009 0 0 1 40.685177-56.317569l-2.082044-1.058087a463.749581 463.749581 0 0 1 134.547792-96.661428l28.158785-12.748249a36.725881 36.725881 0 0 0 9.386261-4.249417l9.386262-3.191329c4.164087-1.058088 9.386261-3.191329 13.567414-4.249417a516.534503 516.534503 0 0 1 98.043768-19.113841 493.683223 493.683223 0 0 1 97.002746 2.116175c22.953676 3.191329 44.849264 10.615008 69.970313 12.74825l1.041021-1.058088h1.041022c22.953676 10.615008 49.030417 18.055754 73.008049 29.745916a469.466668 469.466668 0 0 1 189.841405 167.826356c17.731501 26.554587 42.767221 54.167262 42.76722 83.913177a434.464446 434.464446 0 0 1 40.685178 247.455985l-2.082044-1.058087a376.628009 376.628009 0 0 1-40.787573 138.080439z" fill="#F8E8D7" p-id="25615"></path><path d="M943.989886 332.505583c-35.463003 53.109174-138.728945 129.581606-437.041401 183.765934 0 0 247.199996-296.349874 125.16153-464.193296l1.041022-1.058087h1.041022c22.953676 10.615008 49.030417 18.055754 73.008048 29.745916a483.921511 483.921511 0 0 1 236.789779 251.739533z" fill="#D64544" p-id="25616"></path><path d="M501.743376 517.329605s-128.301662-366.456715-332.785635-340.960216a464.381021 464.381021 0 0 1 394.222983-137.022351c27.117763 57.358591 40.685177 186.940197-61.539744 477.982567z" fill="#D64544" p-id="25617"></path><path d="M502.784398 524.753284S155.441525 458.89586 56.356735 623.530887a467.691811 467.691811 0 0 1 30.257894-317.596957 301.725642 301.725642 0 0 1 45.890286-72.223016c46.931307-2.133241 175.232969 56.317569 370.330681 291.04237z" fill="#D64544" p-id="25618"></path><path d="M356.751235 954.985379a406.169134 406.169134 0 0 1-44.849264-19.113841A486.379005 486.379005 0 0 1 79.310411 695.770969c45.890286-50.992999 156.460446-117.90851 423.491053-166.768268-1.041022 0-213.836103 254.930862-146.033163 425.93148z m464.193296-83.913178a465.6439 465.6439 0 0 1-384.887919 105.160261c-18.772523-67.973599-15.649458-199.671381 71.967026-448.253717 1.023956-0.034132 119.939356 343.059325 312.903827 343.059325z" fill="#D64544" p-id="25619"></path><path d="M938.784777 714.88481a415.350604 415.350604 0 0 1-62.580765 98.777603c-64.662809-9.556921-179.414122-67.973599-365.074374-292.100458 0 0 373.419614 70.10684 455.813924-121.168103a476.139447 476.139447 0 0 1-28.158785 314.405628z" fill="#D64544" p-id="25620"></path><path d="M517.461098 532.19403a28.858488 28.858488 0 0 1-2.082044-11.690162c-10.427283-61.608007-64.662809-352.650377-209.65495-440.812972a499.246716 499.246716 0 0 1 161.682621-42.494166c26.076741 75.414345 56.317569 221.993617 52.153482 493.922146-1.126351 1.075154-2.099109 0.017066-2.099109 1.075154z" fill="#FD6666" p-id="25621"></path><path d="M515.293724 520.503868s2.082043-5.307504 1.041022-5.307505a38.517804 38.517804 0 0 0-7.304218-9.55692c-61.539744-10.615008-318.143067-107.276436-468.340316-37.169596a458.493275 458.493275 0 0 1 34.42198-151.886777c78.230223 15.939579 214.877124 65.857424 439.140511 201.821688 1.041022 0 0 2.116175 1.041021 2.116176z" fill="#FD6666" p-id="25622"></path><path d="M504.866441 515.196363c-1.041022 1.058088-4.164087 3.191329-8.345239 7.440746-43.808242 37.169596-232.608626 202.879776-264.931498 363.265386a484.126302 484.126302 0 0 1-100.142877-101.968932c57.375657-60.54992 166.887729-150.828689 373.419614-268.7372z m174.191948 438.679731a573.159259 573.159259 0 0 1-83.452398 23.363258 3.788636 3.788636 0 0 0-3.123065 1.058087 440.300994 440.300994 0 0 1-52.153482 7.440746c-22.953676-82.85509-51.11246-227.301122-37.545046-458.868726l-3.123065-2.116175h-1.041022a49.64479 49.64479 0 0 0 1.041022 10.615009c8.328174 56.300503 56.317569 312.289453 179.397056 418.507801z" fill="#FD6666" p-id="25623"></path><path d="M937.743755 714.901876c-3.123065 6.365592-5.222175 12.74825-8.345239 18.055754-79.271245-18.055754-213.836103-67.973599-429.754249-198.630359h-1.041022a1.023956 1.023956 0 0 1-1.041022-1.058088h1.041022a3.617977 3.617977 0 0 1 2.082043-1.058087c2.082043 1.058088 5.222175 0 9.386262 2.133241 54.235525 26.554587 319.132891 115.775269 468.340317 42.494165a418.883252 418.883252 0 0 1-40.668112 138.063374z" fill="#FD6666" p-id="25624"></path><path d="M899.140622 249.650493c-52.153482 60.54992-162.723642 157.211347-391.151116 287.851041 1.041022-1.058088 4.164087-3.191329 8.34524-6.365592 46.931307-39.251639 262.815322-230.49245 269.11265-400.452047a469.807987 469.807987 0 0 1 113.693226 118.966598z" fill="#FD6666" p-id="25625"></path></svg>