<?xml version="1.0" standalone="no"?><!DOCTYPE svg PUBLIC "-//W3C//DTD SVG 1.1//EN" "http://www.w3.org/Graphics/SVG/1.1/DTD/svg11.dtd"><svg t="1775143014829" class="icon" viewBox="0 0 1041 1024" version="1.1" xmlns="http://www.w3.org/2000/svg" p-id="26724" xmlns:xlink="http://www.w3.org/1999/xlink" width="520.5" height="512"><path d="M40.949979 1014.814271a24.425688 24.425688 0 0 1-33.820183 3.757798 28.809786 28.809786 0 0 1 0.417533-38.413048l336.531702-330.059938a24.425688 24.425688 0 0 1 33.820184-3.966565l3.757798 3.966565a24.425688 24.425688 0 0 1-4.175331 33.820183z" fill="#DDDCDC" p-id="26725"></path><path d="M923.197482 682.875433a398.952905 398.952905 0 1 1 3.966564-563.669725 398.952905 398.952905 0 0 1-3.966564 563.669725z" fill="#F5CA1D" p-id="26726"></path><path d="M265.582803 270.352701c3.131498 101.46055 62.629969 226.302956 167.013252 331.938838 111.063812 112.733945 246.13578 174.111315 351.145362 169.100918a396.656473 396.656473 0 0 0 113.151478-64.508869c-109.184913 35.281549-274.945566-26.095821-408.347401-161.167788-125.259939-127.138838-185.175943-282.252396-160.959021-390.602242a396.656473 396.656473 0 0 0-62.62997 114.404077z" fill="#E94B49" p-id="26727"></path><path d="M526.332242 17.327625a396.656473 396.656473 0 0 0-125.259939 63.882569c-5.219164 110.228746 57.410805 252.81631 175.155148 372.230785 125.259939 127.347604 278.494597 192.482773 391.228542 177.660346a396.656473 396.656473 0 0 0 62.62997-134.863201c-76.199796 67.222834-242.169215 14.404893-375.779817-120.249541C531.551406 251.146177 479.359765 98.955352 526.332242 17.327625z" fill="#E94B49" p-id="26728"></path><path d="M704.827655 5.845464c38.830581 2.296432 156.992457 75.573496 204.8 130.270336 64.091335 73.485831 93.318654 162.002854 62.629969 192.482773-26.72212 26.513354-104.383282-14.404893-127.973904-28.601019a158.245056 158.245056 0 0 1-57.828338-58.872172c-17.327625-32.358818 6.05423-48.225076 6.05423-79.331294s-39.665647-25.260754-58.245871-11.482161c-118.161876 88.308257 89.143323 245.300714 168.265851 270.352701 35.072783 10.647095 87.055657 9.394495 115.239144-18.580224 50.312742-49.477676 14.404893-176.616514-86.846891-279.329664C857.227247 48.01631 764.952426 4.801631 704.827655 5.845464z" fill="#E94B49" p-id="26729"></path></svg>